<mxfile host="app.diagrams.net" modified="2022-05-04T03:47:55.838Z" agent="5.0 (Macintosh; Intel Mac OS X 10_15_7) AppleWebKit/537.36 (KHTML, like Gecko) Chrome/100.0.4896.127 Safari/537.36" etag="xcUz6LATAnsQa2Uq9Ius" version="17.5.0" type="github">
  <diagram id="xNRLgVGnw3uNa32xC4Ke" name="第 1 页">
    <mxGraphModel dx="1141" dy="635" grid="1" gridSize="10" guides="1" tooltips="1" connect="1" arrows="1" fold="1" page="1" pageScale="1" pageWidth="827" pageHeight="1169" math="0" shadow="0">
      <root>
        <mxCell id="0" />
        <mxCell id="1" parent="0" />
        <mxCell id="x2KF9iYfZeD1TcPA4PnB-4" value="" style="rounded=0;whiteSpace=wrap;html=1;" vertex="1" parent="1">
          <mxGeometry x="80" y="240" width="620" height="460" as="geometry" />
        </mxCell>
        <mxCell id="x2KF9iYfZeD1TcPA4PnB-11" style="edgeStyle=orthogonalEdgeStyle;rounded=0;orthogonalLoop=1;jettySize=auto;html=1;entryX=0.5;entryY=0;entryDx=0;entryDy=0;curved=1;exitX=0.5;exitY=1;exitDx=0;exitDy=0;" edge="1" parent="1" source="x2KF9iYfZeD1TcPA4PnB-1" target="x2KF9iYfZeD1TcPA4PnB-5">
          <mxGeometry relative="1" as="geometry" />
        </mxCell>
        <mxCell id="x2KF9iYfZeD1TcPA4PnB-1" value="L1" style="rounded=0;whiteSpace=wrap;html=1;" vertex="1" parent="1">
          <mxGeometry x="130" y="110" width="120" height="60" as="geometry" />
        </mxCell>
        <mxCell id="x2KF9iYfZeD1TcPA4PnB-12" style="edgeStyle=orthogonalEdgeStyle;curved=1;rounded=0;orthogonalLoop=1;jettySize=auto;html=1;entryX=0.5;entryY=0;entryDx=0;entryDy=0;" edge="1" parent="1" source="x2KF9iYfZeD1TcPA4PnB-2" target="x2KF9iYfZeD1TcPA4PnB-5">
          <mxGeometry relative="1" as="geometry" />
        </mxCell>
        <mxCell id="x2KF9iYfZeD1TcPA4PnB-2" value="L2" style="rounded=0;whiteSpace=wrap;html=1;" vertex="1" parent="1">
          <mxGeometry x="310" y="110" width="120" height="60" as="geometry" />
        </mxCell>
        <mxCell id="x2KF9iYfZeD1TcPA4PnB-13" style="edgeStyle=orthogonalEdgeStyle;curved=1;rounded=0;orthogonalLoop=1;jettySize=auto;html=1;entryX=0.5;entryY=0;entryDx=0;entryDy=0;exitX=0.5;exitY=1;exitDx=0;exitDy=0;" edge="1" parent="1" source="x2KF9iYfZeD1TcPA4PnB-3" target="x2KF9iYfZeD1TcPA4PnB-5">
          <mxGeometry relative="1" as="geometry" />
        </mxCell>
        <mxCell id="x2KF9iYfZeD1TcPA4PnB-3" value="L3" style="rounded=0;whiteSpace=wrap;html=1;" vertex="1" parent="1">
          <mxGeometry x="490" y="110" width="120" height="60" as="geometry" />
        </mxCell>
        <mxCell id="x2KF9iYfZeD1TcPA4PnB-14" style="edgeStyle=orthogonalEdgeStyle;curved=1;rounded=0;orthogonalLoop=1;jettySize=auto;html=1;entryX=0.5;entryY=0;entryDx=0;entryDy=0;exitX=0.5;exitY=1;exitDx=0;exitDy=0;" edge="1" parent="1" source="x2KF9iYfZeD1TcPA4PnB-20" target="x2KF9iYfZeD1TcPA4PnB-6">
          <mxGeometry relative="1" as="geometry" />
        </mxCell>
        <mxCell id="x2KF9iYfZeD1TcPA4PnB-15" style="edgeStyle=orthogonalEdgeStyle;curved=1;rounded=0;orthogonalLoop=1;jettySize=auto;html=1;entryX=0.5;entryY=0;entryDx=0;entryDy=0;exitX=0.5;exitY=1;exitDx=0;exitDy=0;" edge="1" parent="1" source="x2KF9iYfZeD1TcPA4PnB-20" target="x2KF9iYfZeD1TcPA4PnB-7">
          <mxGeometry relative="1" as="geometry" />
        </mxCell>
        <mxCell id="x2KF9iYfZeD1TcPA4PnB-16" style="edgeStyle=orthogonalEdgeStyle;curved=1;rounded=0;orthogonalLoop=1;jettySize=auto;html=1;entryX=0.5;entryY=0;entryDx=0;entryDy=0;exitX=0.5;exitY=1;exitDx=0;exitDy=0;" edge="1" parent="1" source="x2KF9iYfZeD1TcPA4PnB-20" target="x2KF9iYfZeD1TcPA4PnB-8">
          <mxGeometry relative="1" as="geometry" />
        </mxCell>
        <mxCell id="x2KF9iYfZeD1TcPA4PnB-21" style="edgeStyle=orthogonalEdgeStyle;curved=1;rounded=0;orthogonalLoop=1;jettySize=auto;html=1;entryX=0.5;entryY=0;entryDx=0;entryDy=0;" edge="1" parent="1" source="x2KF9iYfZeD1TcPA4PnB-5" target="x2KF9iYfZeD1TcPA4PnB-20">
          <mxGeometry relative="1" as="geometry" />
        </mxCell>
        <mxCell id="x2KF9iYfZeD1TcPA4PnB-5" value="Istio-ingressgateway" style="rounded=0;whiteSpace=wrap;html=1;" vertex="1" parent="1">
          <mxGeometry x="310" y="270" width="120" height="60" as="geometry" />
        </mxCell>
        <mxCell id="x2KF9iYfZeD1TcPA4PnB-17" style="edgeStyle=orthogonalEdgeStyle;curved=1;rounded=0;orthogonalLoop=1;jettySize=auto;html=1;entryX=0.5;entryY=0;entryDx=0;entryDy=0;" edge="1" parent="1" source="x2KF9iYfZeD1TcPA4PnB-6" target="x2KF9iYfZeD1TcPA4PnB-9">
          <mxGeometry relative="1" as="geometry" />
        </mxCell>
        <mxCell id="x2KF9iYfZeD1TcPA4PnB-6" value="cat-L1" style="rounded=0;whiteSpace=wrap;html=1;" vertex="1" parent="1">
          <mxGeometry x="130" y="480" width="120" height="60" as="geometry" />
        </mxCell>
        <mxCell id="x2KF9iYfZeD1TcPA4PnB-18" style="edgeStyle=orthogonalEdgeStyle;curved=1;rounded=0;orthogonalLoop=1;jettySize=auto;html=1;entryX=0.5;entryY=0;entryDx=0;entryDy=0;" edge="1" parent="1" source="x2KF9iYfZeD1TcPA4PnB-7" target="x2KF9iYfZeD1TcPA4PnB-10">
          <mxGeometry relative="1" as="geometry" />
        </mxCell>
        <mxCell id="x2KF9iYfZeD1TcPA4PnB-7" value="cat-L2" style="rounded=0;whiteSpace=wrap;html=1;" vertex="1" parent="1">
          <mxGeometry x="310" y="480" width="120" height="60" as="geometry" />
        </mxCell>
        <mxCell id="x2KF9iYfZeD1TcPA4PnB-19" style="edgeStyle=orthogonalEdgeStyle;curved=1;rounded=0;orthogonalLoop=1;jettySize=auto;html=1;entryX=0.5;entryY=0;entryDx=0;entryDy=0;" edge="1" parent="1" source="x2KF9iYfZeD1TcPA4PnB-8" target="x2KF9iYfZeD1TcPA4PnB-10">
          <mxGeometry relative="1" as="geometry" />
        </mxCell>
        <mxCell id="x2KF9iYfZeD1TcPA4PnB-8" value="cat-L3" style="rounded=0;whiteSpace=wrap;html=1;" vertex="1" parent="1">
          <mxGeometry x="490" y="480" width="120" height="60" as="geometry" />
        </mxCell>
        <mxCell id="x2KF9iYfZeD1TcPA4PnB-9" value="dog-L1" style="rounded=0;whiteSpace=wrap;html=1;" vertex="1" parent="1">
          <mxGeometry x="220" y="600" width="120" height="60" as="geometry" />
        </mxCell>
        <mxCell id="x2KF9iYfZeD1TcPA4PnB-10" value="dog-default" style="rounded=0;whiteSpace=wrap;html=1;" vertex="1" parent="1">
          <mxGeometry x="414" y="600" width="120" height="60" as="geometry" />
        </mxCell>
        <mxCell id="x2KF9iYfZeD1TcPA4PnB-20" value="spring cloud gateway&lt;br&gt;业务网关-租户决策" style="rounded=0;whiteSpace=wrap;html=1;" vertex="1" parent="1">
          <mxGeometry x="310" y="360" width="120" height="60" as="geometry" />
        </mxCell>
      </root>
    </mxGraphModel>
  </diagram>
</mxfile>
